<mxfile host="app.diagrams.net" agent="Mozilla/5.0 (Windows NT 10.0; Win64; x64) AppleWebKit/537.36 (KHTML, like Gecko) Chrome/131.0.0.0 Safari/537.36 Edg/131.0.0.0" version="25.0.3">
  <diagram name="Страница — 1" id="3dqWfRFqY9Iq3gayOSOA">
    <mxGraphModel dx="3420" dy="1504" grid="1" gridSize="10" guides="1" tooltips="1" connect="1" arrows="1" fold="1" page="1" pageScale="1" pageWidth="827" pageHeight="1169" math="0" shadow="0">
      <root>
        <mxCell id="0" />
        <mxCell id="1" parent="0" />
        <mxCell id="TtenGAWJWz1JzpJs7GxB-8" value="" style="edgeStyle=orthogonalEdgeStyle;rounded=0;orthogonalLoop=1;jettySize=auto;html=1;" parent="1" source="TtenGAWJWz1JzpJs7GxB-1" target="TtenGAWJWz1JzpJs7GxB-3" edge="1">
          <mxGeometry relative="1" as="geometry" />
        </mxCell>
        <mxCell id="TtenGAWJWz1JzpJs7GxB-1" value="Начало" style="strokeWidth=2;html=1;shape=mxgraph.flowchart.terminator;whiteSpace=wrap;" parent="1" vertex="1">
          <mxGeometry x="130" y="50" width="120" height="30" as="geometry" />
        </mxCell>
        <mxCell id="TtenGAWJWz1JzpJs7GxB-2" value="Конец" style="strokeWidth=2;html=1;shape=mxgraph.flowchart.terminator;whiteSpace=wrap;" parent="1" vertex="1">
          <mxGeometry x="140" y="2080" width="100" height="60" as="geometry" />
        </mxCell>
        <mxCell id="TtenGAWJWz1JzpJs7GxB-11" value="" style="edgeStyle=orthogonalEdgeStyle;rounded=0;orthogonalLoop=1;jettySize=auto;html=1;" parent="1" source="TtenGAWJWz1JzpJs7GxB-3" target="TtenGAWJWz1JzpJs7GxB-4" edge="1">
          <mxGeometry relative="1" as="geometry" />
        </mxCell>
        <mxCell id="TtenGAWJWz1JzpJs7GxB-3" value="Загрузка DOM содержимого" style="rounded=0;whiteSpace=wrap;html=1;" parent="1" vertex="1">
          <mxGeometry x="105" y="160" width="170" height="50" as="geometry" />
        </mxCell>
        <mxCell id="TtenGAWJWz1JzpJs7GxB-12" value="" style="edgeStyle=orthogonalEdgeStyle;rounded=0;orthogonalLoop=1;jettySize=auto;html=1;" parent="1" source="TtenGAWJWz1JzpJs7GxB-4" target="TtenGAWJWz1JzpJs7GxB-5" edge="1">
          <mxGeometry relative="1" as="geometry" />
        </mxCell>
        <mxCell id="TtenGAWJWz1JzpJs7GxB-4" value="Ввод чисел" style="shape=parallelogram;html=1;strokeWidth=2;perimeter=parallelogramPerimeter;whiteSpace=wrap;rounded=1;arcSize=12;size=0.23;" parent="1" vertex="1">
          <mxGeometry x="90" y="240" width="200" height="40" as="geometry" />
        </mxCell>
        <mxCell id="TtenGAWJWz1JzpJs7GxB-13" value="" style="edgeStyle=orthogonalEdgeStyle;rounded=0;orthogonalLoop=1;jettySize=auto;html=1;" parent="1" source="TtenGAWJWz1JzpJs7GxB-5" target="TtenGAWJWz1JzpJs7GxB-6" edge="1">
          <mxGeometry relative="1" as="geometry" />
        </mxCell>
        <mxCell id="TtenGAWJWz1JzpJs7GxB-15" value="Да" style="edgeLabel;html=1;align=center;verticalAlign=middle;resizable=0;points=[];" parent="TtenGAWJWz1JzpJs7GxB-13" vertex="1" connectable="0">
          <mxGeometry x="-0.0364" y="3" relative="1" as="geometry">
            <mxPoint as="offset" />
          </mxGeometry>
        </mxCell>
        <mxCell id="TtenGAWJWz1JzpJs7GxB-17" style="edgeStyle=orthogonalEdgeStyle;rounded=0;orthogonalLoop=1;jettySize=auto;html=1;entryX=0.5;entryY=0;entryDx=0;entryDy=0;" parent="1" source="TtenGAWJWz1JzpJs7GxB-5" target="TtenGAWJWz1JzpJs7GxB-16" edge="1">
          <mxGeometry relative="1" as="geometry" />
        </mxCell>
        <mxCell id="TtenGAWJWz1JzpJs7GxB-18" value="Нет" style="edgeLabel;html=1;align=center;verticalAlign=middle;resizable=0;points=[];" parent="TtenGAWJWz1JzpJs7GxB-17" vertex="1" connectable="0">
          <mxGeometry x="-0.207" y="-2" relative="1" as="geometry">
            <mxPoint as="offset" />
          </mxGeometry>
        </mxCell>
        <mxCell id="TtenGAWJWz1JzpJs7GxB-5" value="Очистка формы" style="rhombus;whiteSpace=wrap;html=1;" parent="1" vertex="1">
          <mxGeometry x="130" y="350" width="120" height="90" as="geometry" />
        </mxCell>
        <mxCell id="TtenGAWJWz1JzpJs7GxB-14" style="edgeStyle=orthogonalEdgeStyle;rounded=0;orthogonalLoop=1;jettySize=auto;html=1;" parent="1" source="TtenGAWJWz1JzpJs7GxB-6" target="TtenGAWJWz1JzpJs7GxB-2" edge="1">
          <mxGeometry relative="1" as="geometry" />
        </mxCell>
        <mxCell id="TtenGAWJWz1JzpJs7GxB-6" value="Очистка формы" style="rounded=0;whiteSpace=wrap;html=1;" parent="1" vertex="1">
          <mxGeometry x="130" y="550" width="120" height="60" as="geometry" />
        </mxCell>
        <mxCell id="TtenGAWJWz1JzpJs7GxB-20" value="" style="edgeStyle=orthogonalEdgeStyle;rounded=0;orthogonalLoop=1;jettySize=auto;html=1;" parent="1" source="TtenGAWJWz1JzpJs7GxB-16" target="TtenGAWJWz1JzpJs7GxB-19" edge="1">
          <mxGeometry relative="1" as="geometry" />
        </mxCell>
        <mxCell id="TtenGAWJWz1JzpJs7GxB-16" value="Заполнение numbers" style="whiteSpace=wrap;html=1;" parent="1" vertex="1">
          <mxGeometry x="-105" y="420" width="140" height="60" as="geometry" />
        </mxCell>
        <mxCell id="TtenGAWJWz1JzpJs7GxB-22" value="" style="edgeStyle=orthogonalEdgeStyle;rounded=0;orthogonalLoop=1;jettySize=auto;html=1;" parent="1" source="TtenGAWJWz1JzpJs7GxB-19" target="TtenGAWJWz1JzpJs7GxB-21" edge="1">
          <mxGeometry relative="1" as="geometry" />
        </mxCell>
        <mxCell id="TtenGAWJWz1JzpJs7GxB-19" value="let first = 0, second = 0, third = 0;" style="rounded=0;whiteSpace=wrap;html=1;" parent="1" vertex="1">
          <mxGeometry x="-105" y="525" width="140" height="60" as="geometry" />
        </mxCell>
        <mxCell id="TtenGAWJWz1JzpJs7GxB-24" value="" style="edgeStyle=orthogonalEdgeStyle;rounded=0;orthogonalLoop=1;jettySize=auto;html=1;" parent="1" source="TtenGAWJWz1JzpJs7GxB-21" target="TtenGAWJWz1JzpJs7GxB-23" edge="1">
          <mxGeometry relative="1" as="geometry" />
        </mxCell>
        <mxCell id="TtenGAWJWz1JzpJs7GxB-49" style="edgeStyle=orthogonalEdgeStyle;rounded=0;orthogonalLoop=1;jettySize=auto;html=1;exitX=1;exitY=0.5;exitDx=0;exitDy=0;entryX=0.5;entryY=0;entryDx=0;entryDy=0;" parent="1" source="TtenGAWJWz1JzpJs7GxB-21" target="TtenGAWJWz1JzpJs7GxB-40" edge="1">
          <mxGeometry relative="1" as="geometry">
            <Array as="points">
              <mxPoint x="120" y="670" />
              <mxPoint x="120" y="1030" />
              <mxPoint x="-35" y="1030" />
            </Array>
          </mxGeometry>
        </mxCell>
        <mxCell id="TtenGAWJWz1JzpJs7GxB-58" value="Конец&lt;br&gt;Цикла" style="edgeLabel;html=1;align=center;verticalAlign=middle;resizable=0;points=[];" parent="TtenGAWJWz1JzpJs7GxB-49" vertex="1" connectable="0">
          <mxGeometry x="-0.3524" relative="1" as="geometry">
            <mxPoint as="offset" />
          </mxGeometry>
        </mxCell>
        <mxCell id="TtenGAWJWz1JzpJs7GxB-21" value="for (let i = 0; i &amp;lt; numbers.length; i++)" style="shape=hexagon;perimeter=hexagonPerimeter2;whiteSpace=wrap;html=1;fixedSize=1;" parent="1" vertex="1">
          <mxGeometry x="-140" y="630" width="210" height="80" as="geometry" />
        </mxCell>
        <mxCell id="TtenGAWJWz1JzpJs7GxB-26" value="" style="edgeStyle=orthogonalEdgeStyle;rounded=0;orthogonalLoop=1;jettySize=auto;html=1;" parent="1" source="TtenGAWJWz1JzpJs7GxB-23" target="TtenGAWJWz1JzpJs7GxB-25" edge="1">
          <mxGeometry relative="1" as="geometry" />
        </mxCell>
        <mxCell id="TtenGAWJWz1JzpJs7GxB-30" value="" style="edgeStyle=orthogonalEdgeStyle;rounded=0;orthogonalLoop=1;jettySize=auto;html=1;" parent="1" source="TtenGAWJWz1JzpJs7GxB-23" target="TtenGAWJWz1JzpJs7GxB-29" edge="1">
          <mxGeometry relative="1" as="geometry" />
        </mxCell>
        <mxCell id="TtenGAWJWz1JzpJs7GxB-55" value="Нет" style="edgeLabel;html=1;align=center;verticalAlign=middle;resizable=0;points=[];" parent="TtenGAWJWz1JzpJs7GxB-30" vertex="1" connectable="0">
          <mxGeometry x="-0.2585" y="-3" relative="1" as="geometry">
            <mxPoint as="offset" />
          </mxGeometry>
        </mxCell>
        <mxCell id="TtenGAWJWz1JzpJs7GxB-23" value="numbers[i] &amp;gt; first" style="rhombus;whiteSpace=wrap;html=1;" parent="1" vertex="1">
          <mxGeometry x="-110" y="780" width="150" height="80" as="geometry" />
        </mxCell>
        <mxCell id="TtenGAWJWz1JzpJs7GxB-41" style="edgeStyle=orthogonalEdgeStyle;rounded=0;orthogonalLoop=1;jettySize=auto;html=1;entryX=0.5;entryY=0;entryDx=0;entryDy=0;" parent="1" source="TtenGAWJWz1JzpJs7GxB-25" target="TtenGAWJWz1JzpJs7GxB-40" edge="1">
          <mxGeometry relative="1" as="geometry" />
        </mxCell>
        <mxCell id="TtenGAWJWz1JzpJs7GxB-25" value="third = second;&lt;br&gt;&amp;nbsp;second = first;&lt;br&gt;&amp;nbsp;first = numbers[i];" style="whiteSpace=wrap;html=1;" parent="1" vertex="1">
          <mxGeometry x="-135" y="910" width="200" height="70" as="geometry" />
        </mxCell>
        <mxCell id="TtenGAWJWz1JzpJs7GxB-32" value="" style="edgeStyle=orthogonalEdgeStyle;rounded=0;orthogonalLoop=1;jettySize=auto;html=1;" parent="1" source="TtenGAWJWz1JzpJs7GxB-29" target="TtenGAWJWz1JzpJs7GxB-31" edge="1">
          <mxGeometry relative="1" as="geometry" />
        </mxCell>
        <mxCell id="TtenGAWJWz1JzpJs7GxB-39" style="edgeStyle=orthogonalEdgeStyle;rounded=0;orthogonalLoop=1;jettySize=auto;html=1;" parent="1" source="TtenGAWJWz1JzpJs7GxB-29" target="TtenGAWJWz1JzpJs7GxB-35" edge="1">
          <mxGeometry relative="1" as="geometry" />
        </mxCell>
        <mxCell id="TtenGAWJWz1JzpJs7GxB-56" value="Нет" style="edgeLabel;html=1;align=center;verticalAlign=middle;resizable=0;points=[];" parent="TtenGAWJWz1JzpJs7GxB-39" vertex="1" connectable="0">
          <mxGeometry x="-0.3535" y="3" relative="1" as="geometry">
            <mxPoint as="offset" />
          </mxGeometry>
        </mxCell>
        <mxCell id="TtenGAWJWz1JzpJs7GxB-29" value="numbers[i] &amp;gt; second &lt;br&gt;&amp;amp;&amp;amp; &lt;br&gt;numbers[i] &amp;lt; first" style="rhombus;whiteSpace=wrap;html=1;" parent="1" vertex="1">
          <mxGeometry x="-420" y="885" width="260" height="95" as="geometry" />
        </mxCell>
        <mxCell id="TtenGAWJWz1JzpJs7GxB-48" style="edgeStyle=orthogonalEdgeStyle;rounded=0;orthogonalLoop=1;jettySize=auto;html=1;" parent="1" source="TtenGAWJWz1JzpJs7GxB-31" edge="1">
          <mxGeometry relative="1" as="geometry">
            <mxPoint x="-580" y="1280" as="targetPoint" />
            <Array as="points">
              <mxPoint x="-290" y="1280" />
            </Array>
          </mxGeometry>
        </mxCell>
        <mxCell id="TtenGAWJWz1JzpJs7GxB-31" value="third = second; second = numbers[i];" style="whiteSpace=wrap;html=1;" parent="1" vertex="1">
          <mxGeometry x="-350" y="1030" width="120" height="60" as="geometry" />
        </mxCell>
        <mxCell id="TtenGAWJWz1JzpJs7GxB-38" value="" style="edgeStyle=orthogonalEdgeStyle;rounded=0;orthogonalLoop=1;jettySize=auto;html=1;" parent="1" source="TtenGAWJWz1JzpJs7GxB-35" target="TtenGAWJWz1JzpJs7GxB-37" edge="1">
          <mxGeometry relative="1" as="geometry" />
        </mxCell>
        <mxCell id="TtenGAWJWz1JzpJs7GxB-35" value="numbers[i] &amp;gt; third &lt;br&gt;&amp;amp;&amp;amp; &lt;br&gt;numbers[i] &amp;lt; second" style="rhombus;whiteSpace=wrap;html=1;" parent="1" vertex="1">
          <mxGeometry x="-700" y="1020" width="240" height="125" as="geometry" />
        </mxCell>
        <mxCell id="TtenGAWJWz1JzpJs7GxB-44" style="edgeStyle=orthogonalEdgeStyle;rounded=0;orthogonalLoop=1;jettySize=auto;html=1;entryX=0;entryY=0.5;entryDx=0;entryDy=0;" parent="1" source="TtenGAWJWz1JzpJs7GxB-37" target="TtenGAWJWz1JzpJs7GxB-21" edge="1">
          <mxGeometry relative="1" as="geometry">
            <Array as="points">
              <mxPoint x="-580" y="1280" />
              <mxPoint x="-750" y="1280" />
              <mxPoint x="-750" y="670" />
            </Array>
          </mxGeometry>
        </mxCell>
        <mxCell id="TtenGAWJWz1JzpJs7GxB-37" value="third = numbers[i];" style="whiteSpace=wrap;html=1;" parent="1" vertex="1">
          <mxGeometry x="-640" y="1180" width="120" height="60" as="geometry" />
        </mxCell>
        <mxCell id="TtenGAWJWz1JzpJs7GxB-51" value="" style="edgeStyle=orthogonalEdgeStyle;rounded=0;orthogonalLoop=1;jettySize=auto;html=1;" parent="1" source="TtenGAWJWz1JzpJs7GxB-40" target="TtenGAWJWz1JzpJs7GxB-50" edge="1">
          <mxGeometry relative="1" as="geometry" />
        </mxCell>
        <mxCell id="TtenGAWJWz1JzpJs7GxB-60" value="" style="edgeStyle=orthogonalEdgeStyle;rounded=0;orthogonalLoop=1;jettySize=auto;html=1;" parent="1" source="TtenGAWJWz1JzpJs7GxB-40" target="TtenGAWJWz1JzpJs7GxB-59" edge="1">
          <mxGeometry relative="1" as="geometry" />
        </mxCell>
        <mxCell id="TtenGAWJWz1JzpJs7GxB-61" value="Нет" style="edgeLabel;html=1;align=center;verticalAlign=middle;resizable=0;points=[];" parent="TtenGAWJWz1JzpJs7GxB-60" vertex="1" connectable="0">
          <mxGeometry x="-0.5158" y="-2" relative="1" as="geometry">
            <mxPoint as="offset" />
          </mxGeometry>
        </mxCell>
        <mxCell id="TtenGAWJWz1JzpJs7GxB-40" value="third === 0" style="rhombus;whiteSpace=wrap;html=1;" parent="1" vertex="1">
          <mxGeometry x="-102.5" y="1060" width="135" height="100" as="geometry" />
        </mxCell>
        <mxCell id="TtenGAWJWz1JzpJs7GxB-64" style="edgeStyle=orthogonalEdgeStyle;rounded=0;orthogonalLoop=1;jettySize=auto;html=1;entryX=0.5;entryY=0;entryDx=0;entryDy=0;" parent="1" source="TtenGAWJWz1JzpJs7GxB-50" target="TtenGAWJWz1JzpJs7GxB-62" edge="1">
          <mxGeometry relative="1" as="geometry" />
        </mxCell>
        <mxCell id="TtenGAWJWz1JzpJs7GxB-50" value="return null;" style="whiteSpace=wrap;html=1;" parent="1" vertex="1">
          <mxGeometry x="-95" y="1260" width="120" height="60" as="geometry" />
        </mxCell>
        <mxCell id="TtenGAWJWz1JzpJs7GxB-63" style="edgeStyle=orthogonalEdgeStyle;rounded=0;orthogonalLoop=1;jettySize=auto;html=1;entryX=0.5;entryY=0;entryDx=0;entryDy=0;" parent="1" source="TtenGAWJWz1JzpJs7GxB-59" target="TtenGAWJWz1JzpJs7GxB-62" edge="1">
          <mxGeometry relative="1" as="geometry" />
        </mxCell>
        <mxCell id="TtenGAWJWz1JzpJs7GxB-59" value="return third;" style="whiteSpace=wrap;html=1;" parent="1" vertex="1">
          <mxGeometry x="-250" y="1260" width="120" height="60" as="geometry" />
        </mxCell>
        <mxCell id="TtenGAWJWz1JzpJs7GxB-66" value="" style="edgeStyle=orthogonalEdgeStyle;rounded=0;orthogonalLoop=1;jettySize=auto;html=1;" parent="1" source="TtenGAWJWz1JzpJs7GxB-62" target="TtenGAWJWz1JzpJs7GxB-65" edge="1">
          <mxGeometry relative="1" as="geometry" />
        </mxCell>
        <mxCell id="TtenGAWJWz1JzpJs7GxB-62" value="const thirdLargest" style="rounded=0;whiteSpace=wrap;html=1;" parent="1" vertex="1">
          <mxGeometry x="-170" y="1390" width="120" height="60" as="geometry" />
        </mxCell>
        <mxCell id="TtenGAWJWz1JzpJs7GxB-78" value="" style="edgeStyle=orthogonalEdgeStyle;rounded=0;orthogonalLoop=1;jettySize=auto;html=1;" parent="1" source="TtenGAWJWz1JzpJs7GxB-65" target="TtenGAWJWz1JzpJs7GxB-77" edge="1">
          <mxGeometry relative="1" as="geometry" />
        </mxCell>
        <mxCell id="TtenGAWJWz1JzpJs7GxB-65" value="thirdLargest !== null" style="rhombus;whiteSpace=wrap;html=1;rounded=0;" parent="1" vertex="1">
          <mxGeometry x="-185" y="1520" width="150" height="120" as="geometry" />
        </mxCell>
        <mxCell id="TtenGAWJWz1JzpJs7GxB-73" value="Очищаем сообщение о результате через 3 сек." style="rounded=0;whiteSpace=wrap;html=1;" parent="1" vertex="1">
          <mxGeometry x="-320" y="1880" width="190" height="60" as="geometry" />
        </mxCell>
        <mxCell id="TtenGAWJWz1JzpJs7GxB-84" style="edgeStyle=orthogonalEdgeStyle;rounded=0;orthogonalLoop=1;jettySize=auto;html=1;entryX=0.5;entryY=0;entryDx=0;entryDy=0;" parent="1" source="TtenGAWJWz1JzpJs7GxB-77" target="TtenGAWJWz1JzpJs7GxB-73" edge="1">
          <mxGeometry relative="1" as="geometry" />
        </mxCell>
        <mxCell id="TtenGAWJWz1JzpJs7GxB-77" value="Третье по величине число: ${thirdLargest}" style="shape=parallelogram;html=1;strokeWidth=2;perimeter=parallelogramPerimeter;whiteSpace=wrap;rounded=1;arcSize=12;size=0.23;" parent="1" vertex="1">
          <mxGeometry x="-220" y="1740" width="220" height="50" as="geometry" />
        </mxCell>
        <mxCell id="TtenGAWJWz1JzpJs7GxB-83" style="edgeStyle=orthogonalEdgeStyle;rounded=0;orthogonalLoop=1;jettySize=auto;html=1;" parent="1" source="TtenGAWJWz1JzpJs7GxB-79" target="TtenGAWJWz1JzpJs7GxB-73" edge="1">
          <mxGeometry relative="1" as="geometry">
            <Array as="points">
              <mxPoint x="-330" y="1835" />
              <mxPoint x="-225" y="1835" />
            </Array>
          </mxGeometry>
        </mxCell>
        <mxCell id="TtenGAWJWz1JzpJs7GxB-79" value="Третье по величине число не существует." style="shape=parallelogram;html=1;strokeWidth=2;perimeter=parallelogramPerimeter;whiteSpace=wrap;rounded=1;arcSize=12;size=0.23;" parent="1" vertex="1">
          <mxGeometry x="-450" y="1740" width="220" height="50" as="geometry" />
        </mxCell>
        <mxCell id="TtenGAWJWz1JzpJs7GxB-81" style="edgeStyle=orthogonalEdgeStyle;rounded=0;orthogonalLoop=1;jettySize=auto;html=1;entryX=0.545;entryY=0.003;entryDx=0;entryDy=0;entryPerimeter=0;" parent="1" source="TtenGAWJWz1JzpJs7GxB-65" target="TtenGAWJWz1JzpJs7GxB-79" edge="1">
          <mxGeometry relative="1" as="geometry" />
        </mxCell>
        <mxCell id="TtenGAWJWz1JzpJs7GxB-82" value="Нет" style="edgeLabel;html=1;align=center;verticalAlign=middle;resizable=0;points=[];" parent="TtenGAWJWz1JzpJs7GxB-81" vertex="1" connectable="0">
          <mxGeometry x="-0.443" y="-2" relative="1" as="geometry">
            <mxPoint as="offset" />
          </mxGeometry>
        </mxCell>
        <mxCell id="TtenGAWJWz1JzpJs7GxB-86" style="edgeStyle=orthogonalEdgeStyle;rounded=0;orthogonalLoop=1;jettySize=auto;html=1;entryX=0.5;entryY=0;entryDx=0;entryDy=0;entryPerimeter=0;" parent="1" source="TtenGAWJWz1JzpJs7GxB-73" target="TtenGAWJWz1JzpJs7GxB-2" edge="1">
          <mxGeometry relative="1" as="geometry">
            <Array as="points">
              <mxPoint x="-225" y="2020" />
              <mxPoint x="190" y="2020" />
            </Array>
          </mxGeometry>
        </mxCell>
      </root>
    </mxGraphModel>
  </diagram>
</mxfile>
